<?xml version="1.0" standalone="yes"?>
<svg xmlns="http://www.w3.org/2000/svg" width="1000" height="1000">
<path style="fill:#010101; stroke:none;" d="M0 0L0 1000L1000 1000L1000 0L0 0z"/>
<path style="fill:#9b1525; stroke:none;" d="M177 334L177 335L180 335L183 368C204.947 359.82 209 378.536 209 396L229 396C225.917 383.351 225.31 369.917 223.884 357C223.338 352.055 223.794 344.392 220.411 340.394C211.327 329.656 188.971 333.486 177 334z"/>
<path style="fill:#e72038; stroke:none;" d="M178 403L179 403C176.833 394.894 174.366 386.432 176.789 378C178.122 373.362 182.254 369.671 182.863 364.911C184.042 355.682 181.077 344.254 180 335C169.822 335.121 165.464 344.652 165.039 354C164.188 372.727 170.999 386.274 178 403z"/>
<path style="fill:#77111d; stroke:none;" d="M150 427L151 427C154.141 414.357 168.605 403.728 170.386 391C171.228 384.983 166.65 376.97 165.449 371C162.737 357.519 164.977 347.667 172 336C130.983 345.743 138.162 398.565 150 427z"/>
<path style="fill:#e72038; stroke:none;" d="M252 336L252 368L288 368L288 556L323 556L323 368L359 368L359 336L252 336M393 336L382.08 405L358 556L391 556L395 527L398.317 517.028L410 516L438 516L444 556L480 556L457.576 416L445 336L393 336M494 336L494 556L529 556L529 467C535.108 467 542.08 466.078 548 467.789C570.793 474.377 562.993 517.092 563 535C563.002 540.3 562.438 550.1 566.14 554.397C568.273 556.873 573.104 556 576 556L602 556C595.991 529.79 601.794 503.049 596.551 477C594.225 465.444 588.125 452.601 576 449C581.7 445.11 587.088 441.052 590.652 434.999C604.311 411.799 604.287 358.294 579 342.927C556.422 329.207 519.424 336 494 336M622 336L622 556C649.026 556 693.321 564.563 714.91 544.699C729.282 531.475 729 511.869 729 494L729 392C729 376.164 727.701 358.783 714.91 347.465C692.573 327.699 649.618 336 622 336M773 336L762.424 403L738 556L771 556L775.08 527L778.318 517.028L790 516L818 516L824 556L860 556L837.576 416L825 336L773 336z"/>
<path style="fill:#9b1525; stroke:none;" d="M171 337L172 338L171 337M170 338L171 339L170 338M169 339L170 340L169 339M168 341L169 342L168 341z"/>
<path style="fill:#77111d; stroke:none;" d="M222 341L226.448 381.985L229.6 394.972L243 396C243 376.334 241.032 352.008 222 341z"/>
<path style="fill:#9b1525; stroke:none;" d="M167 343L168 344L167 343M166 345L167 346L166 345M165.333 348.667L165.667 349.333L165.333 348.667M164 352L164 366L165 366L164 352M181 368L182 369L181 368z"/>
<path style="fill:#010101; stroke:none;" d="M529 368L529 434C537.861 434 549.697 436.18 556.786 429.61C560.264 426.386 561.734 421.614 561.96 417C562.565 404.641 566.29 380.285 555.895 371.394C549.22 365.685 537.187 368 529 368M658 368L658 524C667.44 524 682.751 527.01 689.581 518.892C696.665 510.471 694 495.163 694 485L694 406C694 395.838 696.434 381.568 689.442 373.108C682.716 364.969 667.385 368 658 368z"/>
<path style="fill:#9b1525; stroke:none;" d="M165 369L165 372L166 372L165 369M166.333 374.667L166.667 375.333L166.333 374.667M167.333 378.667L167.667 379.333L167.333 378.667z"/>
<path style="fill:#010101; stroke:none;" d="M417 380L401 486L433 486L422.59 414L417 380M797 380L781 486L813 486L803.271 418L797 380z"/>
<path style="fill:#9b1525; stroke:none;" d="M168.333 381.667L168.667 382.333L168.333 381.667M169.333 384.667L169.667 385.333L169.333 384.667M170.333 387.667L170.667 388.333L170.333 387.667M171 389L151.329 425.17L158.616 439L190 468L202.371 446L206.748 436.975L194.004 423L171 389z"/>
<path style="fill:#e72038; stroke:none;" d="M207 437C203.269 444.562 189.365 459.551 190.778 468C192.098 475.897 202.773 485.174 207.049 492C219.995 512.669 223.162 532.776 214 555C259.974 535.758 247.838 456.044 207 437z"/>
<path style="fill:#9b1525; stroke:none;" d="M204 488C206.462 497.21 209.902 506.734 205.428 516C199.776 527.708 183.027 529.244 176.005 517.985C170.996 509.953 173 498.03 173 489L146 489C149.491 497.508 153.638 515.584 161 521C160.921 528.674 168.596 551.088 174.699 556.012C181.358 561.383 207.073 559.412 213.532 554.272C218.51 550.31 219.663 542.941 220.116 537C221.269 521.879 215.961 498.253 204 488z"/>
<path style="fill:#e72038; stroke:none;" d="M139 489C139 514.952 141.378 551.114 174 556L161 521C152.813 511.902 153.845 489.176 139 489M147 489L148 490L147 489z"/>
<path style="fill:#010101; stroke:none;" d="M659.043 619.742C646.329 624.874 650.377 658.967 666.96 651.99C679.724 646.62 676.014 612.892 659.043 619.742M408 625L402 642L414 642L408 625z"/>
</svg>
